# File created by Blade
# Date/Time:  Tue Jan 27 19:58:39 2015
#---------------------------------------------------------
:version 1.10
:name HOM
:units
  mass 1.0
  length 1.000000
  angle deg
:documentation
     Acclaim Skeleton File
:root
   axis xyz
   order TX TY TZ RX RY RZ
   position 0.000000 0.000000 0.000000
   orientation 0 0 0
:bonedata
   begin
      id 1
      name Spine_dum
      direction 0.000000 1.000000 0.000000
      length 6.116652
      axis 0.0 0.0 0.0 xyz
   end
   begin
      id 2
      name LeftUpLeg_dum
      direction 1.000000 0.000000 0.000000
      length 4.711765
      axis 0.0 0.0 0.0 xyz
   end
   begin
      id 3
      name RightUpLeg_dum
      direction -1.000000 0.000000 0.000000
      length 4.711765
      axis 0.0 0.0 0.0 xyz
   end
   begin
      id 4
      name Spine
      direction 0.000000 1.000000 0.000000
      length 0.000000
      axis 0.0 0.0 0.0 xyz
      dof rx ry rz
   end
   begin
      id 5
      name Spine_dum1
      direction 0.000000 1.000000 0.000000
      length 15.225563
      axis 0.0 0.0 0.0 xyz
   end
   begin
      id 6
      name Spine_dum2
      direction 0.000000 1.000000 0.000000
      length 8.977654
      axis 0.0 0.0 0.0 xyz
   end
   begin
      id 7
      name Spine_dum3
      direction 0.000000 1.000000 0.000000
      length 8.977654
      axis 0.0 0.0 0.0 xyz
   end
   begin
      id 8
      name Head
      direction 0.000000 1.000000 0.000000
      length 4.527550
      axis 0.0 0.0 0.0 xyz
      dof rx ry rz
   end
   begin
      id 9
      name LeftShoulder
      direction 1.000000 0.000000 0.000000
      length 7.110130
      axis 0.0 0.0 -90.0 xyz
      dof rx ry rz
   end
   begin
      id 10
      name LeftArm
      direction 1.000000 0.000000 0.000000
      length 10.398341
      axis 0.0 0.0 -90.0 xyz
      dof rx ry rz
   end
   begin
      id 11
      name LeftForeArm
      direction 1.000000 0.000000 0.000000
      length 8.888997
      axis 0.0 0.0 -90.0 xyz
      dof ry rz rx
   end
   begin
      id 12
      name LeftHand
      direction 0.000000 0.000000 0.000000
      length 0.000000
      axis 0.0 0.0 -90.0 xyz
      dof rx ry rz
   end
   begin
      id 13
      name LeftHand_dum1
      direction 0.000000 0.000000 0.000000
      length 0.000000
      axis 0.0 0.0 -90.0 xyz
   end
   begin
      id 14
      name LeftHand_dum2
      direction 1.000000 0.000000 0.000000
      length 3.937000
      axis 0.0 0.0 -90.0 xyz
   end
   begin
      id 15
      name LeftHandThumb1
      direction 0.000000 0.000000 1.000000
      length 3.937000
      axis 0.0 0.0 -90.0 xyz
      dof rx rz ry
   end
   begin
      id 16
      name RightShoulder
      direction -1.000000 0.000000 0.000000
      length 7.110130
      axis 0.0 0.0 90.0 xyz
      dof rx ry rz
   end
   begin
      id 17
      name RightArm
      direction -1.000000 0.000000 0.000000
      length 10.398341
      axis 0.0 0.0 90.0 xyz
      dof rx ry rz
   end
   begin
      id 18
      name RightForeArm
      direction -1.000000 0.000000 0.000000
      length 8.888997
      axis 0.0 0.0 90.0 xyz
      dof ry rz rx
   end
   begin
      id 19
      name RightHand
      direction 0.000000 0.000000 0.000000
      length 0.000000
      axis 0.0 0.0 90.0 xyz
      dof rx ry rz
   end
   begin
      id 20
      name RightHand_dum1
      direction 0.000000 0.000000 0.000000
      length 0.000000
      axis 0.0 0.0 90.0 xyz
   end
   begin
      id 21
      name RightHand_dum2
      direction -1.000000 0.000000 0.000000
      length 3.937000
      axis 0.0 0.0 90.0 xyz
   end
   begin
      id 22
      name RightHandThumb1
      direction 0.000000 0.000000 1.000000
      length 3.937000
      axis 0.0 0.0 90.0 xyz
      dof rx rz ry
   end
   begin
      id 23
      name LeftUpLeg
      direction 0.000000 -1.000000 0.000000
      length 15.510451
      axis 0.0 0.0 0.0 xyz
      dof rx ry rz
   end
   begin
      id 24
      name LeftLeg
      direction 0.000000 -1.000000 0.000000
      length 14.858061
      axis 0.0 0.0 0.0 xyz
      dof rx ry rz
   end
   begin
      id 25
      name LeftFoot
      direction 0.000000 -0.258819 0.965926
      length 5.128852
      axis 15.0 0.0 0.0 xyz
      dof rx ry rz
   end
   begin
      id 26
      name LeftToeBase
      direction 0.000000 0.000000 1.000000
      length 2.952750
      axis 0.0 0.0 0.0 xyz
      dof rx ry rz
   end
   begin
      id 27
      name RightUpLeg
      direction 0.000000 -1.000000 0.000000
      length 15.510451
      axis 0.0 0.0 0.0 xyz
      dof rx ry rz
   end
   begin
      id 28
      name RightLeg
      direction 0.000000 -1.000000 0.000000
      length 14.858061
      axis 0.0 0.0 0.0 xyz
      dof rx ry rz
   end
   begin
      id 29
      name RightFoot
      direction 0.000000 -0.258819 0.965926
      length 5.128852
      axis 15.0 0.0 0.0 xyz
      dof rx ry rz
   end
   begin
      id 30
      name RightToeBase
      direction 0.000000 0.000000 1.000000
      length 2.952750
      axis 0.0 0.0 0.0 xyz
      dof rx ry rz
   end
:hierarchy
   begin
      root Spine_dum LeftUpLeg_dum RightUpLeg_dum
      Spine_dum Spine
      LeftUpLeg_dum LeftUpLeg
      RightUpLeg_dum RightUpLeg
      Spine Spine_dum1 Spine_dum2 Spine_dum3
      Spine_dum1 Head
      Spine_dum2 LeftShoulder
      Spine_dum3 RightShoulder
      LeftShoulder LeftArm
      LeftArm LeftForeArm
      LeftForeArm LeftHand
      LeftHand LeftHand_dum1 LeftHand_dum2
      LeftHand_dum1 LeftHandThumb1
      RightShoulder RightArm
      RightArm RightForeArm
      RightForeArm RightHand
      RightHand RightHand_dum1 RightHand_dum2
      RightHand_dum1 RightHandThumb1
      LeftUpLeg LeftLeg
      LeftLeg LeftFoot
      LeftFoot LeftToeBase
      RightUpLeg RightLeg
      RightLeg RightFoot
      RightFoot RightToeBase
   end

# File created by Blade
# Date/Time:  Tue Jan 27 19:58:31 2015
# Frame Rate: 120.000 fps
#------------------------------------------------------
:FULLY-SPECIFIED
:DEGREES
1331
root 5.686002 33.225172 0.447165 -6.574697 -15.426089 -15.211442
Spine 13.431211 9.098865 9.378541
Head 6.476394 -1.143872 8.649782
LeftShoulder -15.821454 4.377116 32.186394
LeftArm -11.295114 -2.318190 -81.935492
LeftForeArm -8.804990 0.000000 119.948239
LeftHand 12.794203 0.000000 -5.104527
LeftHandThumb1 -26.253704 0.000000 33.147579
RightShoulder -21.535456 -17.991022 -19.074758
RightArm 5.232622 -14.360566 90.514260
RightForeArm -12.504255 -0.000000 18.034247
RightHand 18.328320 -0.000000 6.612863
RightHandThumb1 -24.326973 -0.000000 -32.862282
LeftUpLeg 12.648492 12.038905 9.480874
LeftLeg -0.708436 -0.000000 0.000000
LeftFoot -18.477738 19.797888 -19.560600
LeftToeBase 21.988347 -0.000000 -0.000000
RightUpLeg -69.599039 -0.304701 25.131437
RightLeg 103.783761 -0.000000 -0.000000
RightFoot 26.073099 -30.118772 22.164058
RightToeBase 5.915266 -0.000000 -0.000000
1332
root 5.690862 33.225251 0.427734 -6.480839 -15.470179 -15.211654
Spine 13.374448 9.072178 9.332689
Head 6.422939 -1.114315 8.672337
LeftShoulder -15.796460 4.345290 32.206081
LeftArm -11.297151 -2.316812 -81.888318
LeftForeArm -8.904333 -0.000000 119.907459
LeftHand 12.874969 -0.000000 -5.259792
LeftHandThumb1 -26.253704 0.000000 33.147579
RightShoulder -21.547116 -18.016949 -19.062417
RightArm 5.265284 -14.385608 90.555703
RightForeArm -12.519597 -0.000000 18.146682
RightHand 18.294614 -0.000000 6.661800
RightHandThumb1 -24.326973 -0.000000 -32.862282
LeftUpLeg 12.522748 12.139226 9.476351
LeftLeg -0.682021 -0.000000 0.000000
LeftFoot -18.490239 19.714587 -19.641673
LeftToeBase 22.010772 -0.000000 -0.000000
RightUpLeg -69.709957 -0.456604 24.884945
RightLeg 103.828885 -0.000000 -0.000000
RightFoot 26.020665 -30.076032 22.107898
RightToeBase 7.065834 -0.000000 -0.000000
1333
root 5.697013 33.226947 0.408775 -6.389722 -15.532882 -15.222124
Spine 13.332577 9.083669 9.303803
Head 6.361390 -1.050188 8.694448
LeftShoulder -15.758546 4.338374 32.203010
LeftArm -11.292940 -2.330758 -81.849326
LeftForeArm -8.936481 0.000000 119.903935
LeftHand 12.837069 -0.000000 -5.239422
LeftHandThumb1 -26.253704 0.000000 33.147579
RightShoulder -21.567686 -18.004519 -19.040349
RightArm 5.275010 -14.444953 90.568355
RightForeArm -12.559192 0.000000 18.252850
RightHand 18.158665 -0.000000 6.746818
RightHandThumb1 -24.326973 -0.000000 -32.862282
LeftUpLeg 12.403179 12.203456 9.465446
LeftLeg -0.656244 -0.000000 0.000000
LeftFoot -18.498372 19.725235 -19.676637
LeftToeBase 22.070466 -0.000000 -0.000000
RightUpLeg -69.807088 -0.614725 24.635708
RightLeg 103.863349 -0.000000 -0.000000
RightFoot 25.937298 -30.140816 22.221575
RightToeBase 6.258595 -0.000000 -0.000000
1334
root 5.694681 33.230800 0.390190 -6.311685 -15.592166 -15.279451
Spine 13.318412 9.079219 9.303367
Head 6.287435 -0.975746 8.735559
LeftShoulder -15.717478 4.329854 32.226040
LeftArm -11.293920 -2.374659 -81.826358
LeftForeArm -8.847837 0.000000 119.894867
LeftHand 12.699212 -0.000000 -4.829598
LeftHandThumb1 -26.253704 0.000000 33.147579
RightShoulder -21.568913 -18.023407 -19.002772
RightArm 5.327621 -14.546084 90.582892
RightForeArm -12.502766 -0.000000 18.298408
RightHand 18.202780 -0.000000 6.738607
RightHandThumb1 -24.326973 -0.000000 -32.862282
LeftUpLeg 12.311591 12.173978 9.505648
LeftLeg -0.634018 -0.000000 0.000000
LeftFoot -18.541327 19.806915 -19.734239
LeftToeBase 22.078223 -0.000000 -0.000000
RightUpLeg -69.860894 -0.770901 24.429884
RightLeg 103.884441 -0.000000 -0.000000
RightFoot 25.950030 -30.047594 22.279572
RightToeBase 7.222715 -0.000000 -0.000000
1335
root 5.695120 33.234506 0.371137 -6.239044 -15.670347 -15.327367
Spine 13.313865 9.098639 9.305758
Head 6.223733 -0.927309 8.776080
LeftShoulder -15.686058 4.295270 32.226828
LeftArm -11.312244 -2.399968 -81.794526
LeftForeArm -8.900274 -0.000000 119.898738
LeftHand 12.756942 -0.000000 -5.005583
LeftHandThumb1 -26.253704 0.000000 33.147579
RightShoulder -21.565251 -18.020248 -18.981543
RightArm 5.364502 -14.598916 90.612362
RightForeArm -12.460389 0.000000 18.330691
RightHand 18.194877 -0.000000 6.724717
RightHandThumb1 -24.326973 -0.000000 -32.862282
LeftUpLeg 12.208324 12.067223 9.514785
LeftLeg -0.580936 -0.000000 0.000000
LeftFoot -18.628824 19.972759 -19.830909
LeftToeBase 22.050492 -0.000000 -0.000000
RightUpLeg -69.907148 -0.900964 24.195065
RightLeg 103.896515 -0.000000 -0.000000
RightFoot 26.061328 -29.895345 22.190593
RightToeBase 6.455239 -0.000000 -0.000000
1336
root 5.691652 33.240618 0.351819 -6.161091 -15.754434 -15.415626
Spine 13.310275 9.119666 9.334369
Head 6.162061 -0.871312 8.834523
LeftShoulder -15.649760 4.244657 32.249214
LeftArm -11.324151 -2.508779 -81.809914
LeftForeArm -8.885826 -0.000000 119.891463
LeftHand 12.740789 -0.000000 -5.175480
LeftHandThumb1 -26.253704 0.000000 33.147579
RightShoulder -21.550728 -17.981494 -18.961819
RightArm 5.380120 -14.649476 90.637429
RightForeArm -12.452036 -0.000000 18.327154
RightHand 18.237223 -0.000000 6.710149
RightHandThumb1 -24.326973 -0.000000 -32.862282
LeftUpLeg 12.130617 12.022071 9.586041
LeftLeg -0.557204 -0.000000 0.000000
LeftFoot -18.683196 20.078656 -19.886551
LeftToeBase 22.099677 -0.000000 -0.000000
RightUpLeg -69.933160 -1.031395 24.028360
RightLeg 103.885987 -0.000000 -0.000000
RightFoot 26.163822 -29.797148 21.891282
RightToeBase 7.108448 -0.000000 -0.000000
1337
root 5.700513 33.242131 0.328390 -6.046981 -15.808092 -15.415634
Spine 13.251453 9.116190 9.279853
Head 6.094883 -0.794888 8.873107
LeftShoulder -15.639828 4.220433 32.243500
LeftArm -11.316959 -2.585104 -81.821944
LeftForeArm -8.861570 -0.000000 119.888242
LeftHand 12.763928 -0.000000 -5.202323
LeftHandThumb1 -26.253704 0.000000 33.147579
RightShoulder -21.525294 -17.941145 -18.974050
RightArm 5.404509 -14.681397 90.673469
RightForeArm -12.497730 -0.000000 18.314066
RightHand 18.261587 -0.000000 6.773701
RightHandThumb1 -24.326973 -0.000000 -32.862282
LeftUpLeg 11.848629 11.651821 9.492032
LeftLeg -0.296303 -0.000000 0.000000
LeftFoot -18.912860 20.312794 -20.133394
LeftToeBase 22.201193 -0.000000 -0.000000
RightUpLeg -70.063509 -1.201524 23.738922
RightLeg 103.902483 -0.000000 -0.000000
RightFoot 26.216691 -29.760697 22.043806
RightToeBase 6.835082 -0.000000 -0.000000
1338
root 5.703520 33.244553 0.313594 -5.981988 -15.938235 -15.467624
Spine 13.247805 9.151297 9.295008
Head 6.065322 -0.687301 8.909499
LeftShoulder -15.641744 4.217003 32.239855
LeftArm -11.333670 -2.635991 -81.820987
LeftForeArm -8.837685 -0.000000 119.904986
LeftHand 12.729268 -0.000000 -5.123171
LeftHandThumb1 -26.253704 0.000000 33.147579
RightShoulder -21.470377 -17.898715 -19.015737
RightArm 5.409731 -14.750852 90.708838
RightForeArm -12.528902 -0.000000 18.317741
RightHand 18.187359 0.000000 6.782912
RightHandThumb1 -24.326973 -0.000000 -32.862282
LeftUpLeg 11.795082 11.717286 9.534720
LeftLeg -0.271235 -0.000000 0.000000
LeftFoot -18.972966 20.349576 -20.218555
LeftToeBase 22.145661 -0.000000 -0.000000
RightUpLeg -70.083573 -1.261188 23.510205
RightLeg 103.913288 -0.000000 -0.000000
RightFoot 26.143305 -29.714769 22.082400
RightToeBase 7.200442 -0.000000 -0.000000
1339
root 5.704764 33.247045 0.295987 -5.903410 -16.072018 -15.512620
Spine 13.238131 9.233634 9.293321
Head 6.002943 -0.633275 8.970428
LeftShoulder -15.626137 4.181181 32.250530
LeftArm -11.339730 -2.694468 -81.835450
LeftForeArm -8.817232 -0.000000 119.919423
LeftHand 12.689374 0.000000 -5.115359
LeftHandThumb1 -26.253704 0.000000 33.147579
RightShoulder -21.475210 -17.886391 -19.031295
RightArm 5.451612 -14.847322 90.747662
RightForeArm -12.488601 -0.000000 18.271824
RightHand 18.284212 -0.000000 6.744161
RightHandThumb1 -24.326973 -0.000000 -32.862282
LeftUpLeg 11.722884 11.771862 9.563627
LeftLeg -0.244376 -0.000000 0.000000
LeftFoot -18.983163 20.472095 -20.129115
LeftToeBase 22.172305 -0.000000 -0.000000
RightUpLeg -70.114272 -1.325743 23.299187
RightLeg 103.908187 -0.000000 -0.000000
RightFoot 26.140719 -29.699439 22.052191
RightToeBase 6.423341 -0.000000 -0.000000
1340
root 5.700869 33.250963 0.278120 -5.822227 -16.238459 -15.591295
Spine 13.233852 9.321578 9.320929
Head 5.958834 -0.603325 9.047918
LeftShoulder -15.621477 4.151480 32.249988
LeftArm -11.349877 -2.767149 -81.823033
LeftForeArm -8.850805 -0.000000 119.928786
LeftHand 12.685835 -0.000000 -5.256379
LeftHandThumb1 -26.253704 0.000000 33.147579
RightShoulder -21.431574 -17.814361 -19.073834
RightArm 5.422098 -14.876075 90.807573
RightForeArm -12.484397 -0.000000 18.265876
RightHand 18.283654 0.000000 6.717458
RightHandThumb1 -24.326973 -0.000000 -32.862282
LeftUpLeg 11.706611 11.936954 9.650828
LeftLeg -0.292861 -0.000000 0.000000
LeftFoot -18.972402 20.546622 -20.068572
LeftToeBase 22.221881 -0.000000 -0.000000
RightUpLeg -70.105672 -1.349047 23.132994
RightLeg 103.858461 -0.000000 -0.000000
RightFoot 26.083617 -29.745980 21.980210
RightToeBase 5.556973 -0.000000 -0.000000
